# xmcd
#
# Track frame offsets:
#        150
#        20202
#        42262
#        71407
#        100955
#        120820
#        143767
#        164147
#        182497
#        221970
#
# Disc length: 4440 seconds
#
# Revision: 0
# Processed by: cddbd v1.5.1PL0 Copyright (c) Steve Scherf et al.
# Submitted via: ExactAudioCopy v0.95a5
#
DISCID=9011560a
DTITLE=Heartsdales - Heart Attack 2
DYEAR=2005
DGENRE=JPop
TTITLE0=Darlin' Darlin' feat. ZANE (three NATION)(EIGO's REGGAETON REM
TTITLE0=IX)
TTITLE1=I See You (Wall5 remix)
TTITLE2=LOVE and JOY (sonicballoon summer of love remix)
TTITLE3=Shining (TURBO'S Sigma mix)
TTITLE4=Super Star (eighty-eight remix)
TTITLE5=CANDY POP feat. SOUL'd OUT (Maestro-T's Summertime Mix)
TTITLE6=Paradise feat. KATO MIRIA (DJ TARO Cosmic Bass Mixx)
TTITLE7=GET DRUNK feat. Mummy-D (RHYMESTER)(Old Nick ver.)
TTITLE8=Push It (TURBO'S Sigma Edit)
TTITLE9=CCCD
EXTD=
EXTT0=
EXTT1=
EXTT2=
EXTT3=
EXTT4=
EXTT5=
EXTT6=
EXTT7=
EXTT8=
EXTT9=
PLAYORDER=
